Coordinates
version=1
nRows=13
nColumns=63
inDegrees=yes

Units are S.I. units (second, meters, Newtons, ...)
If the header above contains a line with 'inDegrees', this indicates whether rotational values are in degrees (yes) or radians (no).

endheader
time	pelvis_tilt	pelvis_list	pelvis_rotation	pelvis_tx	pelvis_ty	pelvis_tz	hip_flexion_r	hip_adduction_r	hip_rotation_r	knee_angle_r	knee_angle_r_beta	ankle_angle_r	subtalar_angle_r	mtp_angle_r	hip_flexion_l	hip_adduction_l	hip_rotation_l	knee_angle_l	knee_angle_l_beta	ankle_angle_l	subtalar_angle_l	mtp_angle_l	L5_S1_Flex_Ext	L5_S1_Lat_Bending	L5_S1_axial_rotation	L4_L5_Flex_Ext	L4_L5_Lat_Bending	L4_L5_axial_rotation	L3_L4_Flex_Ext	L3_L4_Lat_Bending	L3_L4_axial_rotation	L2_L3_Flex_Ext	L2_L3_Lat_Bending	L2_L3_axial_rotation	L1_L2_Flex_Ext	L1_L2_Lat_Bending	L1_L2_axial_rotation	L1_T12_Flex_Ext	L1_T12_Lat_Bending	L1_T12_axial_rotation	Abs_r3	Abs_r2	Abs_r1	Abs_t1	Abs_t2	neck_flexion	neck_bending	neck_rotation	arm_flex_r	arm_add_r	arm_rot_r	elbow_flex_r	pro_sup_r	wrist_flex_r	wrist_dev_r	arm_flex_l	arm_add_l	arm_rot_l	elbow_flex_l	pro_sup_l	wrist_flex_l	wrist_dev_l
0.000000	2.658288	-3.358338	95.204666	0.137493	1.003046	0.403714	-4.006132	2.948425	-5.832713	0.901535	0.015735	26.420800	12.194321	0.000000	-0.916756	-10.967268	10.655703	7.809153	0.136295	29.645099	1.911336	0.000000	-0.147401	0.539040	2.757752	-0.273739	0.716923	2.930111	-0.242165	1.310621	2.930111	-0.168465	1.310621	2.413033	-0.136877	1.099210	2.240673	-0.084225	0.834972	2.068314	-1.052872	6.097724	15.337787	0.000000	0.000000	8.437869	-1.178638	-12.628206	3.900559	-5.600899	50.554209	40.950413	94.052050	-0.883537	-4.941656	19.071042	-0.929167	75.719196	39.602197	64.113463	4.241367	0.708411
0.025000	2.490202	-3.791068	95.267045	0.133296	1.001623	0.405519	-3.695618	2.364031	-4.859350	0.608071	0.010613	26.828614	11.218057	0.000000	0.244956	-10.562748	8.739920	8.923254	0.155740	30.419189	3.424265	0.000000	-0.118797	0.531192	2.379739	-0.220617	0.706486	2.528473	-0.195171	1.291541	2.528473	-0.135773	1.291541	2.082272	-0.110315	1.083207	1.933538	-0.067880	0.822817	1.784804	-0.848553	6.008953	13.235395	0.000000	0.000000	11.810055	-2.058891	-11.216795	6.754083	-5.635401	58.516870	39.679767	86.599768	-0.859367	-4.468096	16.979310	-0.639554	68.399567	39.856000	67.010540	6.776377	4.141452
0.050000	2.400828	-4.146814	95.371671	0.128287	1.000617	0.406911	-3.418266	1.866505	-4.137689	0.348026	0.006074	27.254552	10.595588	0.000000	1.224319	-10.181883	7.134615	9.879882	0.172436	31.143469	4.709539	0.000000	-0.089965	0.530548	2.019510	-0.167074	0.705629	2.145729	-0.147804	1.289974	2.145729	-0.102821	1.289974	1.767071	-0.083542	1.081893	1.640852	-0.051406	0.821818	1.514632	-0.642612	6.001662	11.231907	0.000000	0.000000	14.386607	-2.582851	-9.770664	8.992502	-5.654189	64.474797	38.749359	79.876621	-0.576409	-3.738474	15.446888	-0.449624	63.061151	40.028439	68.870035	8.666216	6.503662
0.075000	2.378625	-4.433914	95.507346	0.122583	0.999978	0.407938	-3.165406	1.440510	-3.658443	0.132996	0.002321	27.692580	10.289627	0.000000	2.037844	-9.819523	5.818877	10.691824	0.186608	31.818886	5.776439	0.000000	-0.061451	0.535575	1.677974	-0.114121	0.712314	1.782848	-0.100959	1.302196	1.782848	-0.070233	1.302196	1.468227	-0.057064	1.092144	1.363354	-0.035113	0.829605	1.258481	-0.438941	6.058528	9.332389	0.000000	0.000000	16.247524	-2.796580	-8.319719	10.674503	-5.656543	68.644512	38.120800	73.853885	-0.074272	-2.803635	14.406521	-0.349387	59.480669	40.130793	69.826954	9.976861	7.916248
0.100000	2.412054	-4.660706	95.662875	0.116303	0.999655	0.408654	-2.928366	1.070711	-3.412323	-0.025421	-0.000444	28.136664	10.262889	0.000000	2.702039	-9.470513	4.771795	11.371867	0.198477	32.446388	6.634243	0.000000	-0.033801	0.544742	1.356043	-0.062771	0.724506	1.440796	-0.055531	1.324485	1.440796	-0.038631	1.324485	1.186538	-0.031387	1.110837	1.101785	-0.019314	0.843805	1.017032	-0.241434	6.162227	7.541905	0.000000	0.000000	17.472804	-2.746139	-6.893860	11.858776	-5.641745	71.242538	37.755701	68.502837	0.607436	-1.714423	13.790952	-0.328856	57.434842	40.174347	70.016306	10.774286	8.500415
0.125000	2.489573	-4.835528	95.827061	0.109566	0.999598	0.409109	-2.698477	0.741771	-3.390041	-0.115625	-0.002018	28.580767	10.478088	0.000000	3.233414	-9.129700	3.972460	11.932798	0.208267	33.026923	7.292231	0.000000	-0.007557	0.556518	1.054627	-0.014035	0.740168	1.120542	-0.012416	1.353117	1.120542	-0.008637	1.353117	0.922799	-0.007018	1.134851	0.856885	-0.004318	0.862046	0.790971	-0.053982	6.295437	5.865521	0.000000	0.000000	18.142445	-2.477588	-5.522994	12.604007	-5.609074	72.485397	37.615676	63.794755	1.429108	-0.521683	13.532925	-0.378042	56.700389	40.170380	69.573095	11.124466	8.377367
0.150000	2.599643	-4.966715	95.988707	0.102489	0.999756	0.409354	-2.467069	0.438352	-3.582310	-0.126021	-0.002199	29.018855	10.897938	0.000000	3.648479	-8.791933	3.399961	12.387402	0.216201	33.561438	7.759682	0.000000	0.016733	0.569371	0.774638	0.031075	0.757263	0.823053	0.027491	1.384368	0.823053	0.019124	1.384368	0.677808	0.015538	1.161061	0.629393	0.009561	0.881955	0.580978	0.119523	6.440835	4.308303	0.000000	0.000000	18.336446	-2.036987	-4.237022	12.968885	-5.557813	72.589614	37.662336	59.700915	2.351135	0.723741	13.565183	-0.486958	57.054032	40.130175	68.632329	11.093375	7.668312
0.175000	2.730723	-5.062607	96.136618	0.095191	1.000080	0.409440	-2.225471	0.145119	-3.979841	-0.045009	-0.000786	29.444893	11.485153	0.000000	3.963743	-8.452058	3.033387	12.748468	0.222503	34.050880	8.045876	0.000000	0.038526	0.581770	0.516985	0.071547	0.773754	0.549296	0.063294	1.414516	0.549296	0.044031	1.414516	0.452362	0.035775	1.186345	0.420050	0.022014	0.901162	0.387739	0.275188	6.581098	2.875314	0.000000	0.000000	18.134806	-1.470398	-3.065848	13.012097	-5.487241	71.771709	37.857293	56.192595	3.333910	1.971004	13.820470	-0.645614	58.272490	40.065013	67.329014	10.746988	6.494453
0.200000	2.871272	-5.131540	96.259596	0.087791	1.000519	0.409418	-1.965014	-0.153264	-4.573347	0.139007	0.002426	29.852846	12.202448	0.000000	4.195715	-8.104923	2.851829	13.028781	0.227395	34.496199	8.160091	0.000000	0.057277	0.592184	0.282579	0.106368	0.787605	0.300240	0.094100	1.439836	0.300240	0.065461	1.439836	0.247257	0.053187	1.207582	0.229596	0.032728	0.917293	0.211934	0.409120	6.698903	1.571621	0.000000	0.000000	17.617522	-0.823881	-2.039376	12.792333	-5.396639	70.248207	38.162159	53.241071	4.337824	3.169263	14.231530	-0.844024	60.132484	39.986176	65.798156	10.151280	4.976996
0.225000	3.009752	-5.181852	96.346445	0.080406	1.001023	0.409339	-1.677026	-0.472135	-5.353540	0.437627	0.007638	30.236679	13.012538	0.000000	4.360906	-7.745373	2.834376	13.241129	0.231101	34.898340	8.111608	0.000000	0.072440	0.599081	0.072332	0.134528	0.796778	0.076853	0.119011	1.456606	0.076853	0.082791	1.456606	0.063290	0.067267	1.221647	0.058770	0.041392	0.927977	0.054249	0.517429	6.776928	0.402288	0.000000	0.000000	16.864594	-0.143496	-1.187510	12.368279	-5.285288	68.235629	38.538546	50.817621	5.323269	4.267672	14.731106	-1.072198	62.410735	39.904945	64.174763	9.372225	3.237147
0.250000	3.134621	-5.221881	96.385969	0.073156	1.001542	0.409256	-1.352839	-0.826830	-6.311132	0.862447	0.015053	30.590357	13.878135	0.000000	4.475823	-7.368258	2.960117	13.398298	0.233844	35.258252	7.909704	0.000000	0.083470	0.600931	-0.112847	0.155013	0.799238	-0.119900	0.137134	1.461103	-0.119900	0.095398	1.461103	-0.098741	0.077511	1.225418	-0.091688	0.047695	0.930842	-0.084635	0.596221	6.797848	-0.627619	0.000000	0.000000	15.956020	0.524695	-0.540152	11.798624	-5.152469	65.950499	38.948067	48.893521	6.250638	5.215387	15.251942	-1.320148	64.883962	39.832602	62.593841	8.475799	1.396110
0.275000	3.253974	-5.278619	96.261562	0.066286	1.001835	0.409413	-0.848255	-1.254434	-7.468706	1.602672	0.027972	30.966946	14.749907	0.000000	4.582646	-6.992163	3.128232	13.562132	0.236704	35.554908	7.555015	0.000000	0.087623	0.601518	-0.295603	0.162726	0.800020	-0.314078	0.143957	1.462532	-0.314078	0.100145	1.462532	-0.258652	0.081367	1.226617	-0.240177	0.050068	0.931752	-0.221702	0.625886	6.804497	-1.644053	0.000000	0.000000	15.291652	0.998471	0.049667	11.487762	-4.960882	64.924685	39.084504	46.106733	7.157917	5.937267	15.174295	-1.509162	65.752971	39.914583	62.196382	7.741624	0.236121
0.300000	3.276209	-5.340935	96.032215	0.059942	1.001965	0.409706	-0.286600	-1.831005	-8.889608	2.550059	0.044507	31.228800	15.583390	0.000000	4.653195	-6.522384	3.477028	13.661945	0.238446	35.797970	6.925741	0.000000	0.085751	0.585461	-0.422784	0.159248	0.778663	-0.449208	0.140880	1.423489	-0.449208	0.098004	1.423489	-0.369936	0.079628	1.193872	-0.343512	0.048998	0.906879	-0.317088	0.612508	6.622850	-2.351399	0.000000	0.000000	14.610408	1.370187	0.136961	11.041866	-4.733284	63.860577	39.213341	43.999331	7.781008	6.266534	15.063202	-1.694042	66.588462	39.982808	62.024606	7.067466	-0.836650
